<?xml version="1.0" encoding="UTF-8" standalone="no"?>
<!-- Created with Inkscape (http://www.inkscape.org/) -->

<svg
   xmlns:dc="http://purl.org/dc/elements/1.1/"
   xmlns:cc="http://creativecommons.org/ns#"
   xmlns:rdf="http://www.w3.org/1999/02/22-rdf-syntax-ns#"
   xmlns:svg="http://www.w3.org/2000/svg"
   xmlns="http://www.w3.org/2000/svg"
   xmlns:xlink="http://www.w3.org/1999/xlink"
   xmlns:sodipodi="http://sodipodi.sourceforge.net/DTD/sodipodi-0.dtd"
   xmlns:inkscape="http://www.inkscape.org/namespaces/inkscape"
   width="96"
   height="96"
   id="svg6517"
   version="1.1"
   inkscape:version="0.48.4 r9939"
   sodipodi:docname="icon.svg">
  <defs
     id="defs6519">
    <linearGradient
       inkscape:collect="always"
       xlink:href="#Background"
       id="linearGradient6461"
       gradientUnits="userSpaceOnUse"
       x1="0"
       y1="970.29498"
       x2="144"
       y2="970.29498"
       gradientTransform="matrix(0,-0.66666669,0.6660448,0,-866.25992,731.29077)" />
    <linearGradient
       id="Background">
      <stop
         id="stop4178"
         offset="0"
         style="stop-color:#fdfdfd;stop-opacity:1;" />
      <stop
         id="stop4180"
         offset="1"
         style="stop-color:#fcfcfc;stop-opacity:1;" />
    </linearGradient>
    <filter
       style="color-interpolation-filters:sRGB;"
       inkscape:label="Inner Shadow"
       id="filter1121">
      <feFlood
         flood-opacity="0.59999999999999998"
         flood-color="rgb(0,0,0)"
         result="flood"
         id="feFlood1123" />
      <feComposite
         in="flood"
         in2="SourceGraphic"
         operator="out"
         result="composite1"
         id="feComposite1125" />
      <feGaussianBlur
         in="composite1"
         stdDeviation="1"
         result="blur"
         id="feGaussianBlur1127" />
      <feOffset
         dx="0"
         dy="2"
         result="offset"
         id="feOffset1129" />
      <feComposite
         in="offset"
         in2="SourceGraphic"
         operator="atop"
         result="composite2"
         id="feComposite1131" />
    </filter>
    <filter
       style="color-interpolation-filters:sRGB;"
       inkscape:label="Drop Shadow"
       id="filter950">
      <feFlood
         flood-opacity="0.25"
         flood-color="rgb(0,0,0)"
         result="flood"
         id="feFlood952" />
      <feComposite
         in="flood"
         in2="SourceGraphic"
         operator="in"
         result="composite1"
         id="feComposite954" />
      <feGaussianBlur
         in="composite1"
         stdDeviation="1"
         result="blur"
         id="feGaussianBlur956" />
      <feOffset
         dx="0"
         dy="1"
         result="offset"
         id="feOffset958" />
      <feComposite
         in="SourceGraphic"
         in2="offset"
         operator="over"
         result="composite2"
         id="feComposite960" />
    </filter>
    <clipPath
       clipPathUnits="userSpaceOnUse"
       id="clipPath873">
      <g
         transform="matrix(0,-0.66666667,0.66604479,0,-258.25992,677.00001)"
         id="g875"
         inkscape:label="Layer 1"
         style="fill:#ff00ff;fill-opacity:1;stroke:none;display:inline">
        <path
           style="fill:#ff00ff;fill-opacity:1;stroke:none;display:inline"
           d="m 46.702703,898.22775 50.594594,0 C 138.16216,898.22775 144,904.06497 144,944.92583 l 0,50.73846 c 0,40.86071 -5.83784,46.69791 -46.702703,46.69791 l -50.594594,0 C 5.8378378,1042.3622 0,1036.525 0,995.66429 L 0,944.92583 C 0,904.06497 5.8378378,898.22775 46.702703,898.22775 Z"
           id="path877"
           inkscape:connector-curvature="0"
           sodipodi:nodetypes="sssssssss" />
      </g>
    </clipPath>
    <filter
       inkscape:collect="always"
       id="filter891"
       inkscape:label="Badge Shadow">
      <feGaussianBlur
         inkscape:collect="always"
         stdDeviation="0.71999962"
         id="feGaussianBlur893" />
    </filter>
    <clipPath
       id="clipPath4429">
      <g
         transform="matrix(0.9947658,0,0,1,1.7860989,0)"
         id="g4431">
        <path
           inkscape:connector-curvature="0"
           d="m 322.54143,2800.9375 -4.43505,5.7298 -4.43495,-5.7298 0,-43.1429 -18.93972,0 23.37467,-25.5367 23.13125,25.5367 -18.6962,0 0,43.1429 z"
           id="path4433"
           style="fill:#efa724;fill-opacity:1;fill-rule:evenodd;stroke:none;stroke-width:30;marker:none;visibility:visible;display:inline;overflow:visible" />
      </g>
    </clipPath>
    <clipPath
       id="clipPath3950">
      <g
         transform="matrix(0.9947658,0,0,1,1.7860989,0)"
         id="g3952">
        <path
           inkscape:connector-curvature="0"
           d="m 322.54143,2800.9375 -4.43505,5.7298 -4.43495,-5.7298 0,-43.1429 -18.93972,0 23.37467,-25.5367 23.13125,25.5367 -18.6962,0 0,43.1429 z"
           id="path3954"
           style="fill:#efa724;fill-opacity:1;fill-rule:evenodd;stroke:none;stroke-width:30;marker:none;visibility:visible;display:inline;overflow:visible" />
      </g>
    </clipPath>
    <clipPath
       id="clipPath3956">
      <g
         transform="matrix(0.9947658,0,0,1,1.7860989,0)"
         id="g3958">
        <path
           inkscape:connector-curvature="0"
           d="m 322.54143,2800.9375 -4.43505,5.7298 -4.43495,-5.7298 0,-43.1429 -18.93972,0 23.37467,-25.5367 23.13125,25.5367 -18.6962,0 0,43.1429 z"
           id="path3960"
           style="fill:#efa724;fill-opacity:1;fill-rule:evenodd;stroke:none;stroke-width:30;marker:none;visibility:visible;display:inline;overflow:visible" />
      </g>
    </clipPath>
    <clipPath
       id="clipPath3962">
      <g
         transform="matrix(0.9947658,0,0,1,1.7860989,0)"
         id="g3964">
        <path
           inkscape:connector-curvature="0"
           d="m 322.54143,2800.9375 -4.43505,5.7298 -4.43495,-5.7298 0,-43.1429 -18.93972,0 23.37467,-25.5367 23.13125,25.5367 -18.6962,0 0,43.1429 z"
           id="path3966"
           style="fill:#efa724;fill-opacity:1;fill-rule:evenodd;stroke:none;stroke-width:30;marker:none;visibility:visible;display:inline;overflow:visible" />
      </g>
    </clipPath>
  </defs>
  <sodipodi:namedview
     id="base"
     pagecolor="#ffffff"
     bordercolor="#666666"
     borderopacity="1.0"
     inkscape:pageopacity="0.0"
     inkscape:pageshadow="2"
     inkscape:zoom="5.7622644"
     inkscape:cx="-0.21918469"
     inkscape:cy="48.692778"
     inkscape:document-units="px"
     inkscape:current-layer="layer1"
     showgrid="true"
     fit-margin-top="0"
     fit-margin-left="0"
     fit-margin-right="0"
     fit-margin-bottom="0"
     inkscape:window-width="1855"
     inkscape:window-height="1056"
     inkscape:window-x="65"
     inkscape:window-y="24"
     inkscape:window-maximized="1"
     showborder="true"
     showguides="true"
     inkscape:guide-bbox="true"
     inkscape:showpageshadow="false">
    <inkscape:grid
       type="xygrid"
       id="grid821" />
    <sodipodi:guide
       orientation="1,0"
       position="16,48"
       id="guide823" />
    <sodipodi:guide
       orientation="0,1"
       position="64,80"
       id="guide825" />
    <sodipodi:guide
       orientation="1,0"
       position="80,40"
       id="guide827" />
    <sodipodi:guide
       orientation="0,1"
       position="64,16"
       id="guide829" />
  </sodipodi:namedview>
  <metadata
     id="metadata6522">
    <rdf:RDF>
      <cc:Work
         rdf:about="">
        <dc:format>image/svg+xml</dc:format>
        <dc:type
           rdf:resource="http://purl.org/dc/dcmitype/StillImage" />
        <dc:title></dc:title>
      </cc:Work>
    </rdf:RDF>
  </metadata>
  <g
     inkscape:label="BACKGROUND"
     inkscape:groupmode="layer"
     id="layer1"
     transform="translate(268,-635.29076)"
     style="display:inline">
    <path
       style="fill:url(#linearGradient6461);fill-opacity:1.0;stroke:none;display:inline;filter:url(#filter1121)"
       d="m -268,700.15563 0,-33.72973 c 0,-27.24324 3.88785,-31.13513 31.10302,-31.13513 l 33.79408,0 c 27.21507,0 31.1029,3.89189 31.1029,31.13513 l 0,33.72973 c 0,27.24325 -3.88783,31.13514 -31.1029,31.13514 l -33.79408,0 C -264.11215,731.29077 -268,727.39888 -268,700.15563 Z"
       id="path6455"
       inkscape:connector-curvature="0"
       sodipodi:nodetypes="sssssssss" />
    <g
       transform="matrix(0.15553996,0,0,0.15553996,-247.21855,589.44792)"
       id="layer1-3">
      <g
         transform="matrix(1.0008826,0,0,1.0094534,-0.05651152,-6.184848)"
         id="g5189">
        <rect
           width="461.11301"
           height="328.39554"
           x="-56.121956"
           y="434.33029"
           id="rect5183"
           style="fill:#ffffff;fill-opacity:0;stroke:none" />
        <path
           inkscape:connector-curvature="0"
           d="m 34.585748,736.57263 -34.42470048,0 c -3.49076002,0 -6.94438002,-0.50099 -10.36079952,-1.50315 -6.61016,-2.08105 -11.84629,-6.86004 -15.70838,-14.33684 -3.49077,-6.78298 -5.23614,-14.68369 -5.23614,-23.70205 0,-8.70991 1.55969,-16.41791 4.67911,-23.12391 3.41645,-7.39958 8.28123,-12.44829 14.59428,-15.14615 4.9018695,-2.08108 9.9151695,-3.12164 15.0399395,-3.12173 l 31.1938805,0 0,15.49301 -32.4193605,0 c -5.27329,8e-5 -9.09826,2.96764 -11.47492,8.90273 -1.8567995,4.62484 -2.7851695,10.67556 -2.7851695,18.15227 0,6.32057 1.18832,11.67761 3.5650295,16.07113 2.74799,5.16435 6.61012,7.74654 11.58628,7.7465 l 31.7509505,-0.11569 0,14.68381 m 57.33273,0.34681 -27.18327,0 c -6.61015,0 -12.36616,-2.92902 -17.26804,-8.78705 -4.82761,-5.93524 -7.24144,-12.75678 -7.24144,-20.46477 0,-8.40167 2.63662,-15.64716 7.90989,-21.73649 5.34748,-6.16635 11.28916,-9.24951 17.82504,-9.24955 l 25.84645,0 0,12.37127 -18.93919,0 c -2.3767,6e-5 -4.41913,0.23118 -6.12737,0.69373 -1.63403,0.38543 -3.15655,1.19478 -4.5677,2.42799 -2.59952,2.31246 -3.89924,5.43419 -3.89922,9.36519 l 33.42205,0 0,12.48693 -33.31062,0 c -3e-5,1.84994 0.18564,3.43007 0.55698,4.7404 0.44565,1.23329 1.29975,2.5051 2.56237,3.81547 1.26261,1.23327 2.74802,2.08118 4.45625,2.54358 1.78251,0.38546 3.93638,0.57827 6.46167,0.57827 l 19.49615,0 0,11.21503 m 63.529742,-0.34681 -15.48555,0 0,-39.42641 c -5e-5,-1.00202 -0.22282,-1.88842 -0.6684,-2.65924 -0.44569,-0.84783 -1.07699,-1.65717 -1.89397,-2.42803 -1.48544,-1.31029 -3.19366,-1.96547 -5.12467,-1.9655 l -15.15134,0 0,46.47918 -15.48555,0 0,-59.89105 29.6342,0 c 5.27323,4e-5 9.0982,0.30834 11.47489,0.92492 3.71352,0.92504 6.68439,2.96762 8.91258,6.12785 2.52515,3.69987 3.78776,7.74657 3.78781,12.14006 l 0,40.69822 m 44.47573,-47.40415 -15.03994,0 0,27.1706 c -1e-5,2.46658 0.81694,4.50918 2.45094,6.12786 1.85675,1.61869 4.30769,2.428 7.35287,2.428 l 4.56767,0 0,11.67769 -14.37148,0 c -4.30775,0 -7.98418,-1.61877 -11.02928,-4.856 -1.78252,-1.92702 -2.9337,-4.04683 -3.45362,-6.35924 -0.51991,-2.31234 -0.77984,-5.04868 -0.7798,-8.20894 l 0,-27.97997 -9.80382,0 0,-12.4869 9.80382,0 0,-21.04276 15.2627,0 0,21.04276 15.03994,0 0,12.4869 m 90.9132,6.82154 c -1.1e-4,15.72431 -4.19646,26.97795 -12.58902,33.76101 -6.83302,5.47262 -16.78535,8.209 -29.85703,8.209 -14.48291,0 -25.17796,-3.16021 -32.08517,-9.48082 -7.57565,-6.93722 -11.36346,-18.07523 -11.36346,-33.41413 0,-12.56396 3.37931,-22.35306 10.13802,-29.36738 7.3528,-7.63082 18.34492,-11.44628 32.97639,-11.44634 16.11683,6e-5 27.48027,3.66138 34.0905,10.98385 5.79309,6.47475 8.68966,16.72636 8.68977,30.75481 m -19.83048,-0.46248 c -6e-5,-7.93914 -1.81971,-14.25969 -5.45891,-18.96159 -4.08498,-5.24138 -10.13808,-7.86208 -18.15934,-7.86217 -7.87276,9e-5 -13.81444,2.81349 -17.82505,8.44023 -3.34226,4.70194 -5.01333,10.82977 -5.01331,18.38353 -2e-5,8.71006 1.33688,15.14624 4.01065,19.3085 3.7135,5.78098 10.58361,8.67147 20.61025,8.67144 8.46685,3e-5 14.40854,-2.81336 17.82508,-8.4402 2.6737,-4.3935 4.01057,-10.90676 4.01063,-19.53974 m 109.00635,15.95551 c -9e-5,7.09136 -2.26535,13.06504 -6.79577,17.92115 -4.53068,4.85601 -10.28665,7.28403 -17.26809,7.28403 l -55.14637,-0.11569 0,-14.56819 45.45399,0 c 3.04506,3e-5 5.60741,-0.73224 7.68706,-2.19676 2.37663,-1.69573 3.56496,-4.00813 3.56501,-6.93716 -5e-5,-6.86009 -4.67912,-10.29013 -14.03725,-10.29015 l -22.94984,0 c -6.61014,2e-5 -12.40328,-2.11967 -17.37943,-6.3591 -4.97616,-4.23934 -7.46426,-9.63491 -7.46426,-16.18674 0,-7.24544 2.41381,-13.10348 7.24144,-17.57416 4.90188,-4.54763 11.32634,-6.82148 19.27335,-6.82156 l 52.69547,0 0,13.87432 -46.45665,0 c -2.07961,7e-5 -4.19638,0.92504 -6.3502,2.77491 -2.07961,1.77286 -3.11942,3.89256 -3.1194,6.35907 -2e-5,2.77491 1.00263,5.12585 3.008,7.0528 2.07957,1.84995 4.56768,2.77491 7.46425,2.77487 l 25.28934,0 c 7.87269,4e-5 14.03716,2.11972 18.49358,6.35908 4.53042,4.16234 6.79568,9.71206 6.79577,16.64923"
           id="text5083-9"
           style="font-size:72.67242432px;font-style:normal;font-variant:normal;font-weight:200;font-stretch:normal;text-align:start;line-height:125%;writing-mode:lr-tb;text-anchor:start;fill:#000000;fill-opacity:1;stroke:none;display:inline;font-family:Denmark;-inkscape-font-specification:Denmark Ultra-Light" />
        <g
           transform="matrix(1.0627252,0,0,1.0537063,198.76454,-518.47507)"
           id="g3664">
          <g
             transform="matrix(0,-1,1,0,-1934.5199,1337.4805)"
             id="g12802">
            <g
               transform="translate(16.279512,-899.16723)"
               id="g12804">
              <g
                 transform="matrix(1.0666663,0,0,1,-26.935596,-4.1328125e-5)"
                 id="g12806">
                <path
                   inkscape:connector-curvature="0"
                   d="m 323.36653,2798.1614 -5.40616,5.8005 -5.40616,-5.8005 0,-40.8261 -18.01333,0 23.41949,-24.8979 23.02487,24.8979 -17.6187,0 -10e-6,40.8261 z"
                   id="path12808"
                   style="fill:#932279;fill-opacity:1;fill-rule:evenodd;stroke:none;stroke-width:30;marker:none;visibility:visible;display:inline;overflow:visible" />
              </g>
              <g
                 transform="matrix(1.0722788,0,0,1,-28.850792,-4.1328125e-5)"
                 clip-path="url(#clipPath4429)"
                 id="g12812" />
            </g>
          </g>
          <g
             transform="translate(-351.30671,-902.55818)"
             id="g12768">
            <g
               transform="translate(16.279512,-899.16723)"
               id="g12770">
              <g
                 transform="matrix(1.0666663,0,0,1,-26.935596,-4.1328125e-5)"
                 id="g12772">
                <path
                   inkscape:connector-curvature="0"
                   d="m 323.36653,2798.1614 -5.40616,5.8005 -5.40616,-5.8005 0,-40.8261 -18.01333,0 23.41949,-24.8979 23.02487,24.8979 -17.6187,0 -10e-6,40.8261 z"
                   id="path12774"
                   style="fill:#efa724;fill-opacity:1;fill-rule:evenodd;stroke:none;stroke-width:30;marker:none;visibility:visible;display:inline;overflow:visible" />
              </g>
              <g
                 transform="matrix(1.0722788,0,0,1,-28.850792,-4.1328125e-5)"
                 clip-path="url(#clipPath4429)"
                 id="g12778" />
            </g>
          </g>
          <g
             transform="matrix(0,1,-1,0,2787.8992,696.93451)"
             id="g12780">
            <g
               transform="matrix(1.0666663,0,0,1,-26.935596,-4.1328125e-5)"
               id="g12782">
              <path
                 inkscape:connector-curvature="0"
                 d="m 323.36653,2798.1614 -5.40616,5.8005 -5.40616,-5.8005 0,-40.8261 -18.01333,0 23.41949,-24.8979 23.02487,24.8979 -17.6187,0 -10e-6,40.8261 z"
                 id="path12784"
                 style="fill:#262577;fill-opacity:1;fill-rule:evenodd;stroke:none;stroke-width:30;marker:none;visibility:visible;display:inline;overflow:visible" />
            </g>
            <g
               transform="matrix(1.0722788,0,0,1,-28.850792,-4.1328125e-5)"
               clip-path="url(#clipPath4429)"
               id="g12788" />
          </g>
          <g
             transform="matrix(-1,0,0,-1,305.51863,2920.6937)"
             id="g12790">
            <g
               transform="translate(16.279512,-899.16723)"
               id="g12792">
              <g
                 transform="matrix(1.0666663,0,0,1,-26.935596,-4.1328125e-5)"
                 id="g12794">
                <path
                   inkscape:connector-curvature="0"
                   d="m 323.36653,2798.1614 -5.40616,5.8005 -5.40616,-5.8005 0,-40.8261 -18.01333,0 23.41949,-24.8979 23.02487,24.8979 -17.6187,0 -10e-6,40.8261 z"
                   id="path12796"
                   style="fill:#9ccd2a;fill-opacity:1;fill-rule:evenodd;stroke:none;stroke-width:30;marker:none;visibility:visible;display:inline;overflow:visible" />
              </g>
              <g
                 transform="matrix(1.0722788,0,0,1,-28.850792,-4.1328125e-5)"
                 clip-path="url(#clipPath4429)"
                 id="g12800" />
            </g>
          </g>
          <g
             transform="translate(-749.79982,-1331.6428)"
             id="g12742">
            <path
               inkscape:connector-curvature="0"
               d="m 671.98437,2285.7893 49.60645,0 0,49.6065 -49.60645,0 0,-49.6065 z"
               id="rect12744"
               style="fill:#9ccd2a;fill-opacity:1;stroke:#ffffff;stroke-width:3.54330707;stroke-linecap:butt;stroke-linejoin:miter;stroke-miterlimit:4;stroke-opacity:1;stroke-dashoffset:0" />
            <path
               inkscape:connector-curvature="0"
               d="m 732.22076,2285.7893 49.60645,0 0,49.6065 -49.60645,0 0,-49.6065 z"
               id="rect12746"
               style="fill:#932279;fill-opacity:1;stroke:#ffffff;stroke-width:3.54330707;stroke-linecap:butt;stroke-linejoin:miter;stroke-miterlimit:4;stroke-opacity:1;stroke-dashoffset:0" />
            <path
               inkscape:connector-curvature="0"
               d="m 732.22076,2346.0256 49.60645,0 0,49.6065 -49.60645,0 0,-49.6065 z"
               id="rect12748"
               style="fill:#efa724;fill-opacity:1;stroke:#ffffff;stroke-width:3.54330707;stroke-linecap:butt;stroke-linejoin:miter;stroke-miterlimit:4;stroke-opacity:1;stroke-dashoffset:0" />
            <path
               inkscape:connector-curvature="0"
               d="m 671.98437,2346.0256 49.60645,0 0,49.6065 -49.60645,0 0,-49.6065 z"
               id="rect12750"
               style="fill:#262577;fill-opacity:1;stroke:#ffffff;stroke-width:3.54330707;stroke-linecap:butt;stroke-linejoin:miter;stroke-miterlimit:4;stroke-opacity:1;stroke-dashoffset:0" />
          </g>
          <path
             inkscape:connector-curvature="0"
             d="m -784.62878,642.40875 49.60644,0 0,49.60645 -49.60644,0 0,-49.60645 z"
             transform="matrix(0.7071068,-0.7071068,0.7071068,0.7071068,0,0)"
             id="rect12760"
             style="fill:none;stroke:#ffffff;stroke-width:3.54330707;stroke-linecap:butt;stroke-linejoin:miter;stroke-miterlimit:4;stroke-opacity:1;stroke-dashoffset:0" />
          <path
             inkscape:connector-curvature="0"
             d="m -724.39233,642.40875 49.60645,0 0,49.60645 -49.60645,0 0,-49.60645 z"
             transform="matrix(0.7071068,-0.7071068,0.7071068,0.7071068,0,0)"
             id="rect12762"
             style="fill:none;stroke:#ffffff;stroke-width:3.54306793;stroke-linecap:butt;stroke-linejoin:miter;stroke-miterlimit:4;stroke-opacity:1;stroke-dasharray:none;stroke-dashoffset:0" />
          <path
             inkscape:connector-curvature="0"
             d="m -15.377623,1009.0679 35.077058,-35.0771 35.077058,35.0771 -35.077058,35.077 -35.077058,-35.077 z"
             id="rect12764"
             style="fill:none;stroke:#ffffff;stroke-width:3.54330707;stroke-linecap:butt;stroke-linejoin:miter;stroke-miterlimit:4;stroke-opacity:1;stroke-dashoffset:0" />
          <path
             inkscape:connector-curvature="0"
             d="m -784.62878,702.64508 49.60644,0 0,49.60645 -49.60644,0 0,-49.60645 z"
             transform="matrix(0.7071068,-0.7071068,0.7071068,0.7071068,0,0)"
             id="rect12766"
             style="fill:none;stroke:#ffffff;stroke-width:3.54330707;stroke-linecap:butt;stroke-linejoin:miter;stroke-miterlimit:4;stroke-opacity:1;stroke-dashoffset:0" />
        </g>
      </g>
    </g>
  </g>
  <g
     inkscape:groupmode="layer"
     id="layer3"
     inkscape:label="PLACE YOUR PICTOGRAM HERE"
     style="display:inline" />
  <g
     inkscape:groupmode="layer"
     id="layer2"
     inkscape:label="BADGE"
     style="display:none"
     sodipodi:insensitive="true">
    <g
       style="display:inline"
       transform="translate(-340.00001,-581)"
       id="g4394"
       clip-path="none">
      <g
         id="g855">
        <g
           inkscape:groupmode="maskhelper"
           id="g870"
           clip-path="url(#clipPath873)"
           style="opacity:0.6;filter:url(#filter891)">
          <path
             transform="matrix(1.4999992,0,0,1.4999992,-29.999795,-237.54282)"
             d="m 264,552.36218 c 0,6.62742 -5.37258,12 -12,12 -6.62742,0 -12,-5.37258 -12,-12 0,-6.62741 5.37258,-12 12,-12 6.62742,0 12,5.37259 12,12 z"
             sodipodi:ry="12"
             sodipodi:rx="12"
             sodipodi:cy="552.36218"
             sodipodi:cx="252"
             id="path844"
             style="color:#000000;fill:#000000;fill-opacity:1;fill-rule:nonzero;stroke:none;stroke-width:4;marker:none;visibility:visible;display:inline;overflow:visible;enable-background:accumulate"
             sodipodi:type="arc" />
        </g>
        <g
           id="g862">
          <path
             sodipodi:type="arc"
             style="color:#000000;fill:#f5f5f5;fill-opacity:1;fill-rule:nonzero;stroke:none;stroke-width:4;marker:none;visibility:visible;display:inline;overflow:visible;enable-background:accumulate"
             id="path4398"
             sodipodi:cx="252"
             sodipodi:cy="552.36218"
             sodipodi:rx="12"
             sodipodi:ry="12"
             d="m 264,552.36218 c 0,6.62742 -5.37258,12 -12,12 -6.62742,0 -12,-5.37258 -12,-12 0,-6.62741 5.37258,-12 12,-12 6.62742,0 12,5.37259 12,12 z"
             transform="matrix(1.4999992,0,0,1.4999992,-29.999795,-238.54282)" />
          <path
             transform="matrix(1.25,0,0,1.25,33,-100.45273)"
             d="m 264,552.36218 c 0,6.62742 -5.37258,12 -12,12 -6.62742,0 -12,-5.37258 -12,-12 0,-6.62741 5.37258,-12 12,-12 6.62742,0 12,5.37259 12,12 z"
             sodipodi:ry="12"
             sodipodi:rx="12"
             sodipodi:cy="552.36218"
             sodipodi:cx="252"
             id="path4400"
             style="color:#000000;fill:#dd4814;fill-opacity:1;fill-rule:nonzero;stroke:none;stroke-width:4;marker:none;visibility:visible;display:inline;overflow:visible;enable-background:accumulate"
             sodipodi:type="arc" />
          <path
             sodipodi:type="star"
             style="color:#000000;fill:#f5f5f5;fill-opacity:1;fill-rule:nonzero;stroke:none;stroke-width:3;marker:none;visibility:visible;display:inline;overflow:visible;enable-background:accumulate"
             id="path4459"
             sodipodi:sides="5"
             sodipodi:cx="666.19574"
             sodipodi:cy="589.50385"
             sodipodi:r1="7.2431178"
             sodipodi:r2="4.3458705"
             sodipodi:arg1="1.0471976"
             sodipodi:arg2="1.6755161"
             inkscape:flatsided="false"
             inkscape:rounded="0.1"
             inkscape:randomized="0"
             d="m 669.8173,595.77657 c -0.39132,0.22593 -3.62645,-1.90343 -4.07583,-1.95066 -0.44938,-0.0472 -4.05653,1.36297 -4.39232,1.06062 -0.3358,-0.30235 0.68963,-4.03715 0.59569,-4.47913 -0.0939,-0.44198 -2.5498,-3.43681 -2.36602,-3.8496 0.18379,-0.41279 4.05267,-0.59166 4.44398,-0.81759 0.39132,-0.22593 2.48067,-3.48704 2.93005,-3.4398 0.44938,0.0472 1.81505,3.67147 2.15084,3.97382 0.3358,0.30236 4.08294,1.2817 4.17689,1.72369 0.0939,0.44198 -2.9309,2.86076 -3.11469,3.27355 -0.18379,0.41279 0.0427,4.27917 -0.34859,4.5051 z"
             transform="matrix(1.511423,-0.16366377,0.16366377,1.511423,-755.37346,-191.93651)" />
        </g>
      </g>
    </g>
  </g>
</svg>
